G04*
G04 #@! TF.GenerationSoftware,Altium Limited,Altium Designer,19.1.5 (86)*
G04*
G04 Layer_Color=65535*
%FSLAX25Y25*%
%MOIN*%
G70*
G01*
G75*
%ADD10C,0.01600*%
%ADD11C,0.00500*%
%ADD12C,0.00787*%
%ADD13C,0.00050*%
D10*
X-1800Y6900D02*
G03*
X-1800Y6900I-800J0D01*
G01*
D11*
X14400Y-27300D02*
X19600Y-27300D01*
X14400Y-16700D02*
X19600D01*
X19600Y-27300D02*
X19600Y-16700D01*
X14400Y-27300D02*
X14400Y-16700D01*
X-16900Y-10600D02*
X-9100D01*
Y-14400D02*
Y-10600D01*
X-16900Y-14400D02*
Y-10600D01*
Y-14400D02*
X-9100D01*
X-27333Y-2001D02*
X-27833Y-1501D01*
X-28832D01*
X-29332Y-2001D01*
Y-4000D01*
X-28832Y-4500D01*
X-27833D01*
X-27333Y-4000D01*
Y-3001D01*
X-28332D01*
X-26333Y-4500D02*
Y-1501D01*
X-24334Y-4500D01*
Y-1501D01*
X-23334D02*
Y-4500D01*
X-21835D01*
X-21335Y-4000D01*
Y-2001D01*
X-21835Y-1501D01*
X-23334D01*
X-29332Y500D02*
Y3499D01*
X-27333Y500D01*
Y3499D01*
X-26333D02*
X-24334D01*
X-25333D01*
Y500D01*
X-21335Y2999D02*
X-21835Y3499D01*
X-22834D01*
X-23334Y2999D01*
Y1000D01*
X-22834Y500D01*
X-21835D01*
X-21335Y1000D01*
X-38832Y11500D02*
Y14499D01*
X-36833Y11500D01*
Y14499D01*
X-35833D02*
X-33834D01*
X-34833D01*
Y11500D01*
X-30835Y13999D02*
X-31334Y14499D01*
X-32334D01*
X-32834Y13999D01*
Y12000D01*
X-32334Y11500D01*
X-31334D01*
X-30835Y12000D01*
X-38832Y6000D02*
Y8999D01*
X-37333D01*
X-36833Y8499D01*
Y7500D01*
X-37333Y7000D01*
X-38832D01*
X-35833Y8999D02*
Y6000D01*
X-34833Y7000D01*
X-33834Y6000D01*
Y8999D01*
X-32834Y6000D02*
Y8999D01*
X-31834Y7999D01*
X-30835Y8999D01*
Y6000D01*
X-36833Y2999D02*
X-37333Y3499D01*
X-38332D01*
X-38832Y2999D01*
Y1000D01*
X-38332Y500D01*
X-37333D01*
X-36833Y1000D01*
X-35833Y3499D02*
Y500D01*
Y2000D01*
X-33834D01*
Y3499D01*
Y500D01*
X-32834Y3499D02*
Y500D01*
X-31334D01*
X-30835Y1000D01*
Y1500D01*
X-31334Y2000D01*
X-32834D01*
X-31334D01*
X-30835Y2499D01*
Y2999D01*
X-31334Y3499D01*
X-32834D01*
X-36833Y-2501D02*
X-37333Y-2001D01*
X-38332D01*
X-38832Y-2501D01*
Y-4500D01*
X-38332Y-5000D01*
X-37333D01*
X-36833Y-4500D01*
X-35833Y-2001D02*
Y-5000D01*
Y-3500D01*
X-33834D01*
Y-2001D01*
Y-5000D01*
X-32834D02*
Y-3001D01*
X-31834Y-2001D01*
X-30835Y-3001D01*
Y-5000D01*
Y-3500D01*
X-32834D01*
X-36833Y-7501D02*
X-37333Y-7001D01*
X-38332D01*
X-38832Y-7501D01*
Y-9500D01*
X-38332Y-10000D01*
X-37333D01*
X-36833Y-9500D01*
Y-8501D01*
X-37832D01*
X-35833Y-10000D02*
Y-7001D01*
X-33834Y-10000D01*
Y-7001D01*
X-32834D02*
Y-10000D01*
X-31334D01*
X-30835Y-9500D01*
Y-7501D01*
X-31334Y-7001D01*
X-32834D01*
X-38832Y-12001D02*
Y-14000D01*
X-37832Y-15000D01*
X-36833Y-14000D01*
Y-12001D01*
X-33834Y-12501D02*
X-34334Y-12001D01*
X-35333D01*
X-35833Y-12501D01*
Y-14500D01*
X-35333Y-15000D01*
X-34334D01*
X-33834Y-14500D01*
X-30835Y-12501D02*
X-31334Y-12001D01*
X-32334D01*
X-32834Y-12501D01*
Y-14500D01*
X-32334Y-15000D01*
X-31334D01*
X-30835Y-14500D01*
X-1500Y14499D02*
Y12000D01*
X-1000Y11500D01*
X-0D01*
X499Y12000D01*
Y14499D01*
X1499Y11500D02*
X2499D01*
X1999D01*
Y14499D01*
X1499Y13999D01*
X-21001Y-11501D02*
X-21500Y-11001D01*
X-22500D01*
X-23000Y-11501D01*
Y-13500D01*
X-22500Y-14000D01*
X-21500D01*
X-21001Y-13500D01*
X-18002Y-14000D02*
X-20001D01*
X-18002Y-12001D01*
Y-11501D01*
X-18501Y-11001D01*
X-19501D01*
X-20001Y-11501D01*
X16999Y-29001D02*
X16499Y-28501D01*
X15500D01*
X15000Y-29001D01*
Y-31000D01*
X15500Y-31500D01*
X16499D01*
X16999Y-31000D01*
X17999Y-31500D02*
X18999D01*
X18499D01*
Y-28501D01*
X17999Y-29001D01*
D12*
X31500Y-10000D02*
Y10000D01*
Y-10000D02*
X41500D01*
Y10000D01*
X31500D02*
X41500D01*
X20500Y30000D02*
X30500D01*
X20500Y-30000D02*
X30500D01*
X20500D02*
Y30000D01*
X30500Y-30000D02*
Y30000D01*
X-5512Y-9843D02*
Y9843D01*
X5512Y-9843D02*
Y9843D01*
X-5512D02*
X5512D01*
X-5512Y-9843D02*
X5512D01*
D13*
X0D02*
Y0D01*
Y9843D01*
Y0D02*
X9843D01*
X-9843D02*
X0D01*
M02*
