G04*
G04 #@! TF.GenerationSoftware,Altium Limited,Altium Designer,19.1.5 (86)*
G04*
G04 Layer_Physical_Order=1*
G04 Layer_Color=255*
%FSLAX25Y25*%
%MOIN*%
G70*
G01*
G75*
%ADD14R,0.03500X0.03000*%
%ADD15R,0.02200X0.02200*%
%ADD16O,0.07874X0.02362*%
%ADD17O,0.07874X0.02362*%
%ADD24C,0.01500*%
%ADD25C,0.05906*%
%ADD26R,0.05906X0.05906*%
%ADD27C,0.03543*%
G36*
X3630Y41488D02*
X7232Y41014D01*
X10779Y40228D01*
X14244Y39135D01*
X17601Y37745D01*
X20823Y36067D01*
X23888Y34115D01*
X26770Y31903D01*
X29449Y29449D01*
X31903Y26770D01*
X34115Y23888D01*
X36067Y20823D01*
X37745Y17601D01*
X38501Y15776D01*
X38058Y15539D01*
X38050Y15550D01*
X29739Y23861D01*
X29741Y23864D01*
X29890Y25000D01*
X29741Y26136D01*
X29302Y27195D01*
X28604Y28104D01*
X27695Y28802D01*
X26636Y29241D01*
X25500Y29390D01*
X24364Y29241D01*
X23305Y28802D01*
X22396Y28104D01*
X21698Y27195D01*
X21259Y26136D01*
X21110Y25000D01*
X21259Y23864D01*
X21698Y22805D01*
X22396Y21896D01*
X23305Y21198D01*
X24364Y20759D01*
X25500Y20610D01*
X26636Y20759D01*
X26639Y20761D01*
X28866Y18534D01*
X28535Y18157D01*
X27695Y18802D01*
X26636Y19241D01*
X25500Y19390D01*
X24364Y19241D01*
X23305Y18802D01*
X22396Y18104D01*
X21698Y17195D01*
X21259Y16136D01*
X21110Y15000D01*
X21218Y14176D01*
X20734Y13692D01*
X9983D01*
X9753Y14192D01*
X10924Y15563D01*
X12031Y17370D01*
X12842Y19327D01*
X13336Y21388D01*
X13503Y23500D01*
X13336Y25612D01*
X12842Y27673D01*
X12031Y29630D01*
X10924Y31437D01*
X9548Y33048D01*
X7937Y34424D01*
X6130Y35531D01*
X4172Y36342D01*
X2112Y36836D01*
X0Y37003D01*
X-2112Y36836D01*
X-4172Y36342D01*
X-6130Y35531D01*
X-7937Y34424D01*
X-9548Y33048D01*
X-10924Y31437D01*
X-12031Y29630D01*
X-12842Y27673D01*
X-13336Y25612D01*
X-13503Y23500D01*
X-13336Y21388D01*
X-12842Y19327D01*
X-12031Y17370D01*
X-10924Y15563D01*
X-9548Y13952D01*
X-7937Y12576D01*
X-6130Y11469D01*
X-4172Y10658D01*
X-2112Y10164D01*
X0Y9997D01*
X797Y10060D01*
X1006Y9606D01*
X-1550Y7050D01*
X-2025Y6339D01*
X-2192Y5500D01*
Y-92D01*
X-2408Y-308D01*
X-6861D01*
X-6942Y-245D01*
X-7384Y-62D01*
X-7390Y289D01*
X-7359Y468D01*
X-6672Y927D01*
X-6190Y1649D01*
X-6100Y2100D01*
X-11000D01*
X-15900D01*
X-15810Y1649D01*
X-15328Y927D01*
X-14641Y468D01*
X-14610Y289D01*
X-14616Y-62D01*
X-15058Y-245D01*
X-15597Y-659D01*
X-16011Y-1198D01*
X-16271Y-1826D01*
X-16359Y-2500D01*
X-16271Y-3174D01*
X-16011Y-3802D01*
X-15597Y-4341D01*
X-15100Y-4722D01*
X-15088Y-4829D01*
X-15424Y-5308D01*
X-16592D01*
X-18308Y-3592D01*
Y4092D01*
X-17092Y5308D01*
X-15139D01*
X-15058Y5245D01*
X-14616Y5063D01*
X-14610Y4711D01*
X-14641Y4532D01*
X-15328Y4073D01*
X-15810Y3351D01*
X-15900Y2900D01*
X-11000D01*
X-6100D01*
X-6190Y3351D01*
X-6672Y4073D01*
X-7359Y4532D01*
X-7390Y4711D01*
X-7384Y5063D01*
X-6942Y5245D01*
X-6403Y5659D01*
X-5990Y6198D01*
X-5729Y6826D01*
X-5641Y7500D01*
X-5729Y8174D01*
X-5990Y8802D01*
X-6403Y9341D01*
X-6942Y9755D01*
X-7570Y10015D01*
X-8244Y10103D01*
X-13756D01*
X-14430Y10015D01*
X-15058Y9755D01*
X-15139Y9692D01*
X-18000D01*
X-18839Y9525D01*
X-19550Y9050D01*
X-22050Y6550D01*
X-22525Y5839D01*
X-22692Y5000D01*
Y-4500D01*
X-22525Y-5339D01*
X-22050Y-6050D01*
X-19050Y-9050D01*
X-18339Y-9525D01*
X-17500Y-9692D01*
X-15139D01*
X-15058Y-9755D01*
X-14706Y-9900D01*
X-14806Y-10400D01*
X-17100D01*
Y-12100D01*
X-15000D01*
Y-12500D01*
X-14600D01*
Y-14600D01*
X-13500D01*
Y-15000D01*
X-11040D01*
X-10830Y-15454D01*
X-10924Y-15563D01*
X-12031Y-17370D01*
X-12842Y-19327D01*
X-13336Y-21388D01*
X-13503Y-23500D01*
X-13336Y-25612D01*
X-12842Y-27673D01*
X-12031Y-29630D01*
X-10924Y-31437D01*
X-9548Y-33048D01*
X-7937Y-34424D01*
X-6130Y-35531D01*
X-4172Y-36342D01*
X-2112Y-36836D01*
X0Y-37003D01*
X2112Y-36836D01*
X4172Y-36342D01*
X6130Y-35531D01*
X7937Y-34424D01*
X9548Y-33048D01*
X10924Y-31437D01*
X12031Y-29630D01*
X12842Y-27673D01*
X12977Y-27110D01*
X13441Y-26910D01*
X13850Y-27123D01*
Y-27800D01*
X20150D01*
Y-27092D01*
X21147D01*
Y-29353D01*
X28813D01*
X29008Y-29853D01*
X26770Y-31903D01*
X23888Y-34115D01*
X20823Y-36067D01*
X17601Y-37745D01*
X14244Y-39135D01*
X10779Y-40228D01*
X7232Y-41014D01*
X3630Y-41488D01*
X0Y-41647D01*
X-3630Y-41488D01*
X-7232Y-41014D01*
X-10779Y-40228D01*
X-14244Y-39135D01*
X-17601Y-37745D01*
X-20823Y-36067D01*
X-23888Y-34115D01*
X-26770Y-31903D01*
X-29449Y-29449D01*
X-31903Y-26770D01*
X-34115Y-23888D01*
X-36067Y-20823D01*
X-37745Y-17601D01*
X-39135Y-14244D01*
X-40228Y-10779D01*
X-41014Y-7232D01*
X-41488Y-3630D01*
X-41647Y0D01*
X-41488Y3630D01*
X-41014Y7232D01*
X-40228Y10779D01*
X-39135Y14244D01*
X-37745Y17601D01*
X-36067Y20823D01*
X-34115Y23888D01*
X-31903Y26770D01*
X-29449Y29449D01*
X-26770Y31903D01*
X-23888Y34115D01*
X-20823Y36067D01*
X-17601Y37745D01*
X-14244Y39135D01*
X-10779Y40228D01*
X-7232Y41014D01*
X-3630Y41488D01*
X0Y41647D01*
X3630Y41488D01*
D02*
G37*
G36*
X34308Y13092D02*
Y8803D01*
X34305Y8802D01*
X33396Y8104D01*
X32698Y7195D01*
X32259Y6136D01*
X32110Y5000D01*
X32259Y3864D01*
X32698Y2805D01*
X33396Y1896D01*
X34305Y1198D01*
X35364Y759D01*
X36500Y610D01*
X37636Y759D01*
X38695Y1198D01*
X39604Y1896D01*
X40302Y2805D01*
X40741Y3864D01*
X40847Y4671D01*
X41351D01*
X41488Y3630D01*
X41647Y0D01*
X41488Y-3630D01*
X41014Y-7232D01*
X40953Y-7508D01*
X40453Y-7453D01*
Y-5400D01*
X36900D01*
Y-8953D01*
X40120D01*
X40529Y-9421D01*
X40228Y-10779D01*
X39135Y-14244D01*
X37745Y-17601D01*
X36067Y-20823D01*
X34115Y-23888D01*
X31903Y-26770D01*
X30319Y-28499D01*
X29853Y-28318D01*
Y-20647D01*
X21147D01*
Y-22708D01*
X20150D01*
Y-22000D01*
X19991D01*
X19750Y-21600D01*
Y-19500D01*
X17000D01*
Y-19100D01*
X16600D01*
Y-16600D01*
X15112D01*
X15025Y-16161D01*
X14550Y-15450D01*
X9665Y-10565D01*
X9857Y-10103D01*
X13756D01*
X14430Y-10015D01*
X15058Y-9755D01*
X15139Y-9692D01*
X21808D01*
X22647Y-9525D01*
X23358Y-9050D01*
X23518Y-8890D01*
X24364Y-9241D01*
X25500Y-9390D01*
X26636Y-9241D01*
X27695Y-8802D01*
X28604Y-8104D01*
X29302Y-7195D01*
X29741Y-6136D01*
X29890Y-5000D01*
X29741Y-3864D01*
X29302Y-2805D01*
X28604Y-1896D01*
X27695Y-1198D01*
X26636Y-759D01*
X25500Y-610D01*
X24364Y-759D01*
X23305Y-1198D01*
X22465Y-1843D01*
X22134Y-1466D01*
X24361Y761D01*
X24364Y759D01*
X25500Y610D01*
X26636Y759D01*
X27695Y1198D01*
X28604Y1896D01*
X29302Y2805D01*
X29741Y3864D01*
X29890Y5000D01*
X29741Y6136D01*
X29302Y7195D01*
X28604Y8104D01*
X27695Y8802D01*
X26636Y9241D01*
X25500Y9390D01*
X24364Y9241D01*
X23305Y8802D01*
X22396Y8104D01*
X21698Y7195D01*
X21259Y6136D01*
X21110Y5000D01*
X21259Y3864D01*
X21261Y3861D01*
X17092Y-308D01*
X15424D01*
X15088Y171D01*
X15100Y278D01*
X15597Y659D01*
X16011Y1198D01*
X16271Y1826D01*
X16359Y2500D01*
X16271Y3174D01*
X16011Y3802D01*
X15597Y4341D01*
X15058Y4755D01*
X14616Y4938D01*
X14610Y5289D01*
X14641Y5468D01*
X15328Y5928D01*
X15811Y6649D01*
X15900Y7100D01*
X11000D01*
X6100D01*
X6190Y6649D01*
X6672Y5928D01*
X7359Y5468D01*
X7390Y5289D01*
X7384Y4938D01*
X6942Y4755D01*
X6403Y4341D01*
X5990Y3802D01*
X5729Y3174D01*
X5641Y2500D01*
X5729Y1826D01*
X5990Y1198D01*
X6403Y659D01*
X6900Y278D01*
X6933Y-0D01*
X6900Y-278D01*
X6403Y-659D01*
X5990Y-1198D01*
X5729Y-1826D01*
X5641Y-2500D01*
X5729Y-3174D01*
X5990Y-3802D01*
X6403Y-4341D01*
X6900Y-4722D01*
X6933Y-5000D01*
X6900Y-5278D01*
X6403Y-5659D01*
X5990Y-6198D01*
X5729Y-6826D01*
X5641Y-7500D01*
X5681Y-7808D01*
X5273Y-8308D01*
X-5273D01*
X-5681Y-7808D01*
X-5641Y-7500D01*
X-5729Y-6826D01*
X-5990Y-6198D01*
X-6403Y-5659D01*
X-6900Y-5278D01*
X-6912Y-5171D01*
X-6576Y-4692D01*
X-1500D01*
X-661Y-4525D01*
X50Y-4050D01*
X1550Y-2550D01*
X2025Y-1839D01*
X2192Y-1000D01*
Y4592D01*
X5612Y8012D01*
X5822Y7900D01*
X11000D01*
X15900D01*
X15811Y8351D01*
X15505Y8808D01*
X15773Y9308D01*
X21642D01*
X22481Y9475D01*
X23192Y9950D01*
X24108Y10865D01*
X24364Y10759D01*
X25500Y10610D01*
X26636Y10759D01*
X27695Y11198D01*
X28604Y11896D01*
X29302Y12805D01*
X29741Y13864D01*
X29890Y15000D01*
X29741Y16136D01*
X29302Y17195D01*
X28657Y18035D01*
X29034Y18366D01*
X34308Y13092D01*
D02*
G37*
%LPC*%
G36*
X-15400Y-12900D02*
X-17100D01*
Y-14600D01*
X-15400D01*
Y-12900D01*
D02*
G37*
G36*
X40453Y-1047D02*
X36900D01*
Y-4600D01*
X40453D01*
Y-1047D01*
D02*
G37*
G36*
X36100D02*
X32547D01*
Y-4600D01*
X36100D01*
Y-1047D01*
D02*
G37*
G36*
Y-5400D02*
X32547D01*
Y-8953D01*
X36100D01*
Y-5400D01*
D02*
G37*
G36*
X25900Y-11066D02*
Y-14600D01*
X29434D01*
X29351Y-13968D01*
X28953Y-13007D01*
X28319Y-12181D01*
X27493Y-11547D01*
X26532Y-11149D01*
X25900Y-11066D01*
D02*
G37*
G36*
X25100D02*
X24468Y-11149D01*
X23507Y-11547D01*
X22681Y-12181D01*
X22047Y-13007D01*
X21649Y-13968D01*
X21566Y-14600D01*
X25100D01*
Y-11066D01*
D02*
G37*
G36*
X19750Y-16600D02*
X17400D01*
Y-18700D01*
X19750D01*
Y-16600D01*
D02*
G37*
G36*
X29434Y-15400D02*
X25900D01*
Y-18934D01*
X26532Y-18851D01*
X27493Y-18453D01*
X28319Y-17819D01*
X28953Y-16993D01*
X29351Y-16032D01*
X29434Y-15400D01*
D02*
G37*
G36*
X25100D02*
X21566D01*
X21649Y-16032D01*
X22047Y-16993D01*
X22681Y-17819D01*
X23507Y-18453D01*
X24468Y-18851D01*
X25100Y-18934D01*
Y-15400D01*
D02*
G37*
%LPD*%
D14*
X17000Y-24900D02*
D03*
Y-19100D02*
D03*
D15*
X-15000Y-12500D02*
D03*
X-11000D02*
D03*
D16*
X-11000Y7500D02*
D03*
D17*
Y2500D02*
D03*
Y-2500D02*
D03*
X11000Y-7500D02*
D03*
Y2500D02*
D03*
Y7500D02*
D03*
Y-2500D02*
D03*
X-11000Y-7500D02*
D03*
D24*
X25400Y-24900D02*
X25500Y-25000D01*
X17000Y-24900D02*
X25400D01*
X5500Y6500D02*
X6335Y7335D01*
X10835D01*
X11000Y7500D01*
X18500D01*
X-11000Y2500D02*
X-4000D01*
X-11000Y-10500D02*
Y-7500D01*
Y-12500D02*
Y-10500D01*
X6500D01*
X13000Y-17000D01*
Y-23500D02*
Y-17000D01*
X0Y5500D02*
X6000Y11500D01*
X0Y-1000D02*
Y5500D01*
X-1500Y-2500D02*
X0Y-1000D01*
X6000Y11500D02*
X21642D01*
X25142Y15000D01*
X25500D01*
X-11000Y-2500D02*
X-1500D01*
X-20500Y-4500D02*
X-17500Y-7500D01*
X-11000D01*
X-20500Y-4500D02*
Y5000D01*
X-18000Y7500D01*
X-11000D01*
X14400Y-24900D02*
X17000D01*
X13000Y-23500D02*
X14400Y-24900D01*
X-11000Y-7500D02*
X-11000Y-7500D01*
X36500Y5000D02*
Y14000D01*
X25500Y25000D02*
X36500Y14000D01*
X18000Y-2500D02*
X25500Y5000D01*
X11000Y-2500D02*
X18000D01*
X24308Y-5000D02*
X25500D01*
X21808Y-7500D02*
X24308Y-5000D01*
X11000Y-7500D02*
X21808D01*
D25*
X36500Y5000D02*
D03*
X25500Y-15000D02*
D03*
Y-5000D02*
D03*
Y5000D02*
D03*
Y15000D02*
D03*
Y25000D02*
D03*
D26*
X36500Y-5000D02*
D03*
X25500Y-25000D02*
D03*
D27*
X-17500Y12500D02*
D03*
X17500Y-12500D02*
D03*
X17000Y17500D02*
D03*
X-24000Y-8000D02*
D03*
X-17000Y-17000D02*
D03*
X2500Y-5500D02*
D03*
X18500Y7500D02*
D03*
X-4000Y2500D02*
D03*
M02*
