G04*
G04 #@! TF.GenerationSoftware,Altium Limited,Altium Designer,19.1.5 (86)*
G04*
G04 Layer_Color=2752767*
%FSLAX25Y25*%
%MOIN*%
G70*
G01*
G75*
%ADD10C,0.01600*%
%ADD24C,0.01500*%
%ADD28C,0.01000*%
%ADD29C,0.00200*%
D10*
X974996Y-9552D02*
Y-16750D01*
Y-13151D01*
X979794D01*
Y-9552D01*
Y-16750D01*
X983393D02*
X985792D01*
X986992Y-15550D01*
Y-13151D01*
X985792Y-11952D01*
X983393D01*
X982193Y-13151D01*
Y-15550D01*
X983393Y-16750D01*
X989391D02*
X991790D01*
X990591D01*
Y-9552D01*
X989391D01*
X998988Y-16750D02*
X996589D01*
X995389Y-15550D01*
Y-13151D01*
X996589Y-11952D01*
X998988D01*
X1000188Y-13151D01*
Y-14351D01*
X995389D01*
X1009785Y-9552D02*
X1014583D01*
X1012184D01*
Y-16750D01*
X1018182D02*
X1020581D01*
X1021781Y-15550D01*
Y-13151D01*
X1020581Y-11952D01*
X1018182D01*
X1016982Y-13151D01*
Y-15550D01*
X1018182Y-16750D01*
X1024180D02*
X1026579D01*
X1025380D01*
Y-9552D01*
X1024180D01*
X1033777Y-16750D02*
X1031378D01*
X1030178Y-15550D01*
Y-13151D01*
X1031378Y-11952D01*
X1033777D01*
X1034976Y-13151D01*
Y-14351D01*
X1030178D01*
X1037376Y-11952D02*
Y-16750D01*
Y-14351D01*
X1038575Y-13151D01*
X1039775Y-11952D01*
X1040975D01*
X1045773D02*
X1048172D01*
X1049372Y-13151D01*
Y-16750D01*
X1045773D01*
X1044573Y-15550D01*
X1045773Y-14351D01*
X1049372D01*
X1051771Y-16750D02*
Y-11952D01*
X1055370D01*
X1056569Y-13151D01*
Y-16750D01*
X1063767Y-11952D02*
X1060168D01*
X1058969Y-13151D01*
Y-15550D01*
X1060168Y-16750D01*
X1063767D01*
X1069765D02*
X1067366D01*
X1066166Y-15550D01*
Y-13151D01*
X1067366Y-11952D01*
X1069765D01*
X1070965Y-13151D01*
Y-14351D01*
X1066166D01*
X1082961Y-16750D02*
X1080562Y-14351D01*
Y-11952D01*
X1082961Y-9552D01*
X1086560Y-13151D02*
X1091358D01*
X1093757Y-16750D02*
X1096157Y-14351D01*
Y-11952D01*
X1093757Y-9552D01*
X841635D02*
Y-16750D01*
Y-13151D01*
X846434D01*
Y-9552D01*
Y-16750D01*
X850032D02*
X852432D01*
X853631Y-15550D01*
Y-13151D01*
X852432Y-11952D01*
X850032D01*
X848833Y-13151D01*
Y-15550D01*
X850032Y-16750D01*
X856030D02*
X858430D01*
X857230D01*
Y-9552D01*
X856030D01*
X865627Y-16750D02*
X863228D01*
X862029Y-15550D01*
Y-13151D01*
X863228Y-11952D01*
X865627D01*
X866827Y-13151D01*
Y-14351D01*
X862029D01*
X876424Y-9552D02*
X881222D01*
X878823D01*
Y-16750D01*
X884821D02*
X887220D01*
X888420Y-15550D01*
Y-13151D01*
X887220Y-11952D01*
X884821D01*
X883622Y-13151D01*
Y-15550D01*
X884821Y-16750D01*
X890819D02*
X893218D01*
X892019D01*
Y-9552D01*
X890819D01*
X900416Y-16750D02*
X898017D01*
X896817Y-15550D01*
Y-13151D01*
X898017Y-11952D01*
X900416D01*
X901616Y-13151D01*
Y-14351D01*
X896817D01*
X904015Y-11952D02*
Y-16750D01*
Y-14351D01*
X905215Y-13151D01*
X906414Y-11952D01*
X907614D01*
X912412D02*
X914811D01*
X916011Y-13151D01*
Y-16750D01*
X912412D01*
X911213Y-15550D01*
X912412Y-14351D01*
X916011D01*
X918410Y-16750D02*
Y-11952D01*
X922009D01*
X923209Y-13151D01*
Y-16750D01*
X930406Y-11952D02*
X926807D01*
X925608Y-13151D01*
Y-15550D01*
X926807Y-16750D01*
X930406D01*
X936404D02*
X934005D01*
X932806Y-15550D01*
Y-13151D01*
X934005Y-11952D01*
X936404D01*
X937604Y-13151D01*
Y-14351D01*
X932806D01*
X949600Y-16750D02*
X947201Y-14351D01*
Y-11952D01*
X949600Y-9552D01*
X953199Y-13151D02*
X957997D01*
X955598Y-10752D02*
Y-15550D01*
X960397Y-16750D02*
X962796Y-14351D01*
Y-11952D01*
X960397Y-9552D01*
X756259D02*
Y-16750D01*
X759858D01*
X761057Y-15550D01*
Y-10752D01*
X759858Y-9552D01*
X756259D01*
X767055Y-16750D02*
X764656D01*
X763456Y-15550D01*
Y-13151D01*
X764656Y-11952D01*
X767055D01*
X768255Y-13151D01*
Y-14351D01*
X763456D01*
X770654Y-16750D02*
X774253D01*
X775453Y-15550D01*
X774253Y-14351D01*
X771854D01*
X770654Y-13151D01*
X771854Y-11952D01*
X775453D01*
X782650D02*
X779051D01*
X777852Y-13151D01*
Y-15550D01*
X779051Y-16750D01*
X782650D01*
X785049Y-11952D02*
Y-16750D01*
Y-14351D01*
X786249Y-13151D01*
X787449Y-11952D01*
X788648D01*
X792247Y-16750D02*
X794646D01*
X793447D01*
Y-11952D01*
X792247D01*
X798245Y-19149D02*
Y-11952D01*
X801844D01*
X803044Y-13151D01*
Y-15550D01*
X801844Y-16750D01*
X798245D01*
X806643Y-10752D02*
Y-11952D01*
X805443D01*
X807842D01*
X806643D01*
Y-15550D01*
X807842Y-16750D01*
X811441D02*
X813840D01*
X812640D01*
Y-11952D01*
X811441D01*
X818639Y-16750D02*
X821038D01*
X822237Y-15550D01*
Y-13151D01*
X821038Y-11952D01*
X818639D01*
X817439Y-13151D01*
Y-15550D01*
X818639Y-16750D01*
X824637D02*
Y-11952D01*
X828236D01*
X829435Y-13151D01*
Y-16750D01*
X681279Y-9552D02*
X686078D01*
X683679D01*
Y-16750D01*
X692076D02*
X689677D01*
X688477Y-15550D01*
Y-13151D01*
X689677Y-11952D01*
X692076D01*
X693276Y-13151D01*
Y-14351D01*
X688477D01*
X695675Y-16750D02*
Y-11952D01*
X696874D01*
X698074Y-13151D01*
Y-16750D01*
Y-13151D01*
X699274Y-11952D01*
X700473Y-13151D01*
Y-16750D01*
X702873Y-19149D02*
Y-11952D01*
X706471D01*
X707671Y-13151D01*
Y-15550D01*
X706471Y-16750D01*
X702873D01*
X710070D02*
X712469D01*
X711270D01*
Y-9552D01*
X710070D01*
X717268Y-11952D02*
X719667D01*
X720867Y-13151D01*
Y-16750D01*
X717268D01*
X716068Y-15550D01*
X717268Y-14351D01*
X720867D01*
X724466Y-10752D02*
Y-11952D01*
X723266D01*
X725665D01*
X724466D01*
Y-15550D01*
X725665Y-16750D01*
X732863D02*
X730464D01*
X729264Y-15550D01*
Y-13151D01*
X730464Y-11952D01*
X732863D01*
X734062Y-13151D01*
Y-14351D01*
X729264D01*
X606700Y-16750D02*
Y-9552D01*
X610298D01*
X611498Y-10752D01*
Y-13151D01*
X610298Y-14351D01*
X606700D01*
X615097Y-11952D02*
X617496D01*
X618696Y-13151D01*
Y-16750D01*
X615097D01*
X613897Y-15550D01*
X615097Y-14351D01*
X618696D01*
X625893Y-9552D02*
Y-16750D01*
X622295D01*
X621095Y-15550D01*
Y-13151D01*
X622295Y-11952D01*
X625893D01*
X640289Y-10752D02*
X639089Y-9552D01*
X636690D01*
X635490Y-10752D01*
Y-11952D01*
X636690Y-13151D01*
X639089D01*
X640289Y-14351D01*
Y-15550D01*
X639089Y-16750D01*
X636690D01*
X635490Y-15550D01*
X642688Y-9552D02*
Y-16750D01*
Y-13151D01*
X643888Y-11952D01*
X646287D01*
X647486Y-13151D01*
Y-16750D01*
X651085Y-11952D02*
X653484D01*
X654684Y-13151D01*
Y-16750D01*
X651085D01*
X649886Y-15550D01*
X651085Y-14351D01*
X654684D01*
X657083Y-19149D02*
Y-11952D01*
X660682D01*
X661882Y-13151D01*
Y-15550D01*
X660682Y-16750D01*
X657083D01*
X667880D02*
X665481D01*
X664281Y-15550D01*
Y-13151D01*
X665481Y-11952D01*
X667880D01*
X669079Y-13151D01*
Y-14351D01*
X664281D01*
X547715Y-9552D02*
Y-14351D01*
X550114Y-16750D01*
X552513Y-14351D01*
Y-9552D01*
X554912Y-16750D02*
X557312D01*
X556112D01*
Y-11952D01*
X554912D01*
X562110D02*
X564509D01*
X565709Y-13151D01*
Y-16750D01*
X562110D01*
X560911Y-15550D01*
X562110Y-14351D01*
X565709D01*
X568108Y-16750D02*
X572907Y-11952D01*
X575306Y-16750D02*
Y-9552D01*
X578905D01*
X580104Y-10752D01*
Y-13151D01*
X578905Y-14351D01*
X575306D01*
X583703Y-11952D02*
X586102D01*
X587302Y-13151D01*
Y-16750D01*
X583703D01*
X582504Y-15550D01*
X583703Y-14351D01*
X587302D01*
X594500Y-9552D02*
Y-16750D01*
X590901D01*
X589701Y-15550D01*
Y-13151D01*
X590901Y-11952D01*
X594500D01*
X397760Y-9552D02*
Y-16750D01*
X401359D01*
X402558Y-15550D01*
Y-10752D01*
X401359Y-9552D01*
X397760D01*
X404957Y-11952D02*
Y-16750D01*
Y-14351D01*
X406157Y-13151D01*
X407357Y-11952D01*
X408556D01*
X412155Y-16750D02*
X414554D01*
X413355D01*
Y-11952D01*
X412155D01*
X418153Y-16750D02*
X420552D01*
X419353D01*
Y-9552D01*
X418153D01*
X424151Y-16750D02*
X426550D01*
X425351D01*
Y-9552D01*
X424151D01*
X437347D02*
Y-16750D01*
X442145D01*
X445744Y-11952D02*
X448143D01*
X449343Y-13151D01*
Y-16750D01*
X445744D01*
X444545Y-15550D01*
X445744Y-14351D01*
X449343D01*
X451742Y-11952D02*
Y-15550D01*
X452942Y-16750D01*
X456541D01*
Y-17950D01*
X455341Y-19149D01*
X454142D01*
X456541Y-16750D02*
Y-11952D01*
X462539Y-16750D02*
X460140D01*
X458940Y-15550D01*
Y-13151D01*
X460140Y-11952D01*
X462539D01*
X463738Y-13151D01*
Y-14351D01*
X458940D01*
X466138Y-11952D02*
Y-16750D01*
Y-14351D01*
X467337Y-13151D01*
X468537Y-11952D01*
X469736D01*
X480533Y-16750D02*
Y-9552D01*
X484132D01*
X485331Y-10752D01*
Y-13151D01*
X484132Y-14351D01*
X480533D01*
X488930Y-11952D02*
X491329D01*
X492529Y-13151D01*
Y-16750D01*
X488930D01*
X487731Y-15550D01*
X488930Y-14351D01*
X492529D01*
X494928Y-16750D02*
X497328D01*
X496128D01*
Y-11952D01*
X494928D01*
X500926D02*
Y-16750D01*
Y-14351D01*
X502126Y-13151D01*
X503326Y-11952D01*
X504525D01*
X324379Y-9552D02*
Y-16750D01*
Y-13151D01*
X329178D01*
Y-9552D01*
Y-16750D01*
X332777D02*
X335176D01*
X336376Y-15550D01*
Y-13151D01*
X335176Y-11952D01*
X332777D01*
X331577Y-13151D01*
Y-15550D01*
X332777Y-16750D01*
X338775D02*
X341174D01*
X339974D01*
Y-9552D01*
X338775D01*
X348372Y-16750D02*
X345972D01*
X344773Y-15550D01*
Y-13151D01*
X345972Y-11952D01*
X348372D01*
X349571Y-13151D01*
Y-14351D01*
X344773D01*
X359168Y-9552D02*
X363967D01*
X361567D01*
Y-16750D01*
X366366Y-11952D02*
Y-15550D01*
X367565Y-16750D01*
X371164D01*
Y-17950D01*
X369965Y-19149D01*
X368765D01*
X371164Y-16750D02*
Y-11952D01*
X373564Y-19149D02*
Y-11952D01*
X377162D01*
X378362Y-13151D01*
Y-15550D01*
X377162Y-16750D01*
X373564D01*
X384360D02*
X381961D01*
X380761Y-15550D01*
Y-13151D01*
X381961Y-11952D01*
X384360D01*
X385560Y-13151D01*
Y-14351D01*
X380761D01*
X273792Y-16750D02*
Y-9552D01*
X277391D01*
X278590Y-10752D01*
Y-13151D01*
X277391Y-14351D01*
X273792D01*
X280990Y-16750D02*
X283389D01*
X282189D01*
Y-9552D01*
X280990D01*
X288187Y-11952D02*
X290586D01*
X291786Y-13151D01*
Y-16750D01*
X288187D01*
X286988Y-15550D01*
X288187Y-14351D01*
X291786D01*
X295385Y-10752D02*
Y-11952D01*
X294185D01*
X296585D01*
X295385D01*
Y-15550D01*
X296585Y-16750D01*
X303782D02*
X301383D01*
X300183Y-15550D01*
Y-13151D01*
X301383Y-11952D01*
X303782D01*
X304982Y-13151D01*
Y-14351D01*
X300183D01*
X312179Y-9552D02*
Y-16750D01*
X308581D01*
X307381Y-15550D01*
Y-13151D01*
X308581Y-11952D01*
X312179D01*
X163824Y-9552D02*
Y-16750D01*
Y-13151D01*
X168622D01*
Y-9552D01*
Y-16750D01*
X172221D02*
X174620D01*
X175820Y-15550D01*
Y-13151D01*
X174620Y-11952D01*
X172221D01*
X171022Y-13151D01*
Y-15550D01*
X172221Y-16750D01*
X178219D02*
X180619D01*
X179419D01*
Y-9552D01*
X178219D01*
X187816Y-16750D02*
X185417D01*
X184217Y-15550D01*
Y-13151D01*
X185417Y-11952D01*
X187816D01*
X189016Y-13151D01*
Y-14351D01*
X184217D01*
X203411Y-10752D02*
X202212Y-9552D01*
X199812D01*
X198613Y-10752D01*
Y-11952D01*
X199812Y-13151D01*
X202212D01*
X203411Y-14351D01*
Y-15550D01*
X202212Y-16750D01*
X199812D01*
X198613Y-15550D01*
X205810Y-16750D02*
X208210D01*
X207010D01*
Y-11952D01*
X205810D01*
X211808D02*
X216607D01*
X211808Y-16750D01*
X216607D01*
X222605D02*
X220206D01*
X219006Y-15550D01*
Y-13151D01*
X220206Y-11952D01*
X222605D01*
X223805Y-13151D01*
Y-14351D01*
X219006D01*
X115636Y-10752D02*
X114436Y-9552D01*
X112037D01*
X110838Y-10752D01*
Y-15550D01*
X112037Y-16750D01*
X114436D01*
X115636Y-15550D01*
X119235Y-16750D02*
X121634D01*
X122834Y-15550D01*
Y-13151D01*
X121634Y-11952D01*
X119235D01*
X118035Y-13151D01*
Y-15550D01*
X119235Y-16750D01*
X125233Y-11952D02*
Y-15550D01*
X126433Y-16750D01*
X130031D01*
Y-11952D01*
X132431Y-16750D02*
Y-11952D01*
X136029D01*
X137229Y-13151D01*
Y-16750D01*
X140828Y-10752D02*
Y-11952D01*
X139628D01*
X142027D01*
X140828D01*
Y-15550D01*
X142027Y-16750D01*
X65048Y-10752D02*
X63849Y-9552D01*
X61450D01*
X60250Y-10752D01*
Y-11952D01*
X61450Y-13151D01*
X63849D01*
X65048Y-14351D01*
Y-15550D01*
X63849Y-16750D01*
X61450D01*
X60250Y-15550D01*
X67448Y-11952D02*
Y-15550D01*
X68647Y-16750D01*
X72246D01*
Y-17950D01*
X71047Y-19149D01*
X69847D01*
X72246Y-16750D02*
Y-11952D01*
X74645Y-16750D02*
Y-11952D01*
X75845D01*
X77045Y-13151D01*
Y-16750D01*
Y-13151D01*
X78244Y-11952D01*
X79444Y-13151D01*
Y-16750D01*
X81843Y-9552D02*
Y-16750D01*
X85442D01*
X86642Y-15550D01*
Y-14351D01*
Y-13151D01*
X85442Y-11952D01*
X81843D01*
X90240Y-16750D02*
X92639D01*
X93839Y-15550D01*
Y-13151D01*
X92639Y-11952D01*
X90240D01*
X89041Y-13151D01*
Y-15550D01*
X90240Y-16750D01*
X96238D02*
X98638D01*
X97438D01*
Y-9552D01*
X96238D01*
D24*
X51250Y-21250D02*
X1108357D01*
X51250Y-51250D02*
X1108357D01*
X51250Y-66250D02*
X1108357D01*
Y-6250D01*
X51250D02*
X1108357D01*
X51250Y-66250D02*
Y-6250D01*
X970496Y-66250D02*
Y-6250D01*
X837135Y-66250D02*
Y-6250D01*
X751759Y-66250D02*
Y-6250D01*
X676779Y-66250D02*
Y-6250D01*
X602200Y-66250D02*
Y-6250D01*
X543215Y-66250D02*
Y-6250D01*
X393260Y-66250D02*
Y-6250D01*
X319880Y-66250D02*
Y-6250D01*
X269292Y-66250D02*
Y-6250D01*
X159324Y-66250D02*
Y-6250D01*
X106338Y-66250D02*
Y-6250D01*
D28*
X63896Y-28417D02*
G03*
X63896Y-28417I-3333J0D01*
G01*
X57229Y-46750D02*
X63896D01*
Y-40083D01*
X57229D02*
X63896D01*
X57229Y-46750D02*
Y-40083D01*
X681279Y-27751D02*
X683279Y-31750D01*
X685278Y-27751D01*
X687278Y-30750D02*
X688277Y-31750D01*
X690276D01*
X691276Y-30750D01*
Y-26752D01*
X690276Y-25752D01*
X688277D01*
X687278Y-26752D01*
Y-27751D01*
X688277Y-28751D01*
X691276D01*
X693276Y-26752D02*
X694275Y-25752D01*
X696275D01*
X697274Y-26752D01*
Y-30750D01*
X696275Y-31750D01*
X694275D01*
X693276Y-30750D01*
Y-26752D01*
X699274Y-25752D02*
Y-31750D01*
Y-28751D01*
X700273Y-27751D01*
X702273D01*
X703272Y-28751D01*
Y-31750D01*
X709270Y-25752D02*
X705272D01*
Y-28751D01*
X707271Y-27751D01*
X708271D01*
X709270Y-28751D01*
Y-30750D01*
X708271Y-31750D01*
X706271D01*
X705272Y-30750D01*
X711270Y-26752D02*
X712269Y-25752D01*
X714269D01*
X715269Y-26752D01*
Y-30750D01*
X714269Y-31750D01*
X712269D01*
X711270Y-30750D01*
Y-26752D01*
X717268Y-31750D02*
Y-27751D01*
X718267D01*
X719267Y-28751D01*
Y-31750D01*
Y-28751D01*
X720267Y-27751D01*
X721267Y-28751D01*
Y-31750D01*
X723266Y-26752D02*
X724265Y-25752D01*
X726265D01*
X727265Y-26752D01*
Y-30750D01*
X726265Y-31750D01*
X724265D01*
X723266Y-30750D01*
Y-26752D01*
X729264Y-31750D02*
Y-27751D01*
X730264D01*
X731263Y-28751D01*
Y-31750D01*
Y-28751D01*
X732263Y-27751D01*
X733263Y-28751D01*
Y-31750D01*
X735262Y-27751D02*
X739261Y-31750D01*
X737261Y-29751D01*
X739261Y-27751D01*
X735262Y-31750D01*
X741260Y-26752D02*
X742260Y-25752D01*
X744259D01*
X745259Y-26752D01*
Y-30750D01*
X744259Y-31750D01*
X742260D01*
X741260Y-30750D01*
Y-26752D01*
X683279Y-46750D02*
X681279Y-44751D01*
Y-42751D01*
X683279Y-40752D01*
X686278Y-46750D02*
Y-40752D01*
X688277Y-42751D01*
X690276Y-40752D01*
Y-46750D01*
X692276D02*
X694275D01*
X693276D01*
Y-42751D01*
X692276D01*
X697274D02*
X701273Y-46750D01*
X699274Y-44751D01*
X701273Y-42751D01*
X697274Y-46750D01*
X706271D02*
X704272D01*
X703272Y-45750D01*
Y-43751D01*
X704272Y-42751D01*
X706271D01*
X707271Y-43751D01*
Y-44751D01*
X703272D01*
X713269Y-40752D02*
Y-46750D01*
X710270D01*
X709270Y-45750D01*
Y-43751D01*
X710270Y-42751D01*
X713269D01*
X715269Y-46750D02*
X717268Y-44751D01*
Y-42751D01*
X715269Y-40752D01*
X606700Y-31750D02*
Y-25752D01*
X609699D01*
X610698Y-26752D01*
Y-28751D01*
X609699Y-29751D01*
X606700D01*
X608699D02*
X610698Y-31750D01*
X613697D02*
X615697D01*
X616696Y-30750D01*
Y-28751D01*
X615697Y-27751D01*
X613697D01*
X612698Y-28751D01*
Y-30750D01*
X613697Y-31750D01*
X618696Y-27751D02*
Y-30750D01*
X619695Y-31750D01*
X622694D01*
Y-27751D01*
X624694Y-31750D02*
Y-27751D01*
X627693D01*
X628692Y-28751D01*
Y-31750D01*
X634691Y-25752D02*
Y-31750D01*
X631692D01*
X630692Y-30750D01*
Y-28751D01*
X631692Y-27751D01*
X634691D01*
X639689Y-31750D02*
X637690D01*
X636690Y-30750D01*
Y-28751D01*
X637690Y-27751D01*
X639689D01*
X640689Y-28751D01*
Y-29751D01*
X636690D01*
X646687Y-25752D02*
Y-31750D01*
X643688D01*
X642688Y-30750D01*
Y-28751D01*
X643688Y-27751D01*
X646687D01*
X608699Y-46750D02*
X606700Y-44751D01*
Y-42751D01*
X608699Y-40752D01*
X611698Y-46750D02*
Y-40752D01*
X613697Y-42751D01*
X615697Y-40752D01*
Y-46750D01*
X617696D02*
X619695D01*
X618696D01*
Y-42751D01*
X617696D01*
X622694D02*
X626693Y-46750D01*
X624694Y-44751D01*
X626693Y-42751D01*
X622694Y-46750D01*
X631692D02*
X629692D01*
X628692Y-45750D01*
Y-43751D01*
X629692Y-42751D01*
X631692D01*
X632691Y-43751D01*
Y-44751D01*
X628692D01*
X638689Y-40752D02*
Y-46750D01*
X635690D01*
X634691Y-45750D01*
Y-43751D01*
X635690Y-42751D01*
X638689D01*
X640689Y-46750D02*
X642688Y-44751D01*
Y-42751D01*
X640689Y-40752D01*
X547715Y-25752D02*
Y-29751D01*
X549714Y-31750D01*
X551714Y-29751D01*
Y-25752D01*
X553713Y-31750D02*
X555712D01*
X554712D01*
Y-27751D01*
X553713D01*
X559711D02*
X561710D01*
X562710Y-28751D01*
Y-31750D01*
X559711D01*
X558711Y-30750D01*
X559711Y-29751D01*
X562710D01*
X547715Y-46750D02*
Y-40752D01*
X550714D01*
X551714Y-41752D01*
Y-43751D01*
X550714Y-44751D01*
X547715D01*
X554712Y-42751D02*
X556712D01*
X557712Y-43751D01*
Y-46750D01*
X554712D01*
X553713Y-45750D01*
X554712Y-44751D01*
X557712D01*
X563710Y-40752D02*
Y-46750D01*
X560711D01*
X559711Y-45750D01*
Y-43751D01*
X560711Y-42751D01*
X563710D01*
X397760Y-25752D02*
X401758D01*
X399759D01*
Y-31750D01*
X404757D02*
X406757D01*
X407757Y-30750D01*
Y-28751D01*
X406757Y-27751D01*
X404757D01*
X403758Y-28751D01*
Y-30750D01*
X404757Y-31750D01*
X409756Y-33749D02*
Y-27751D01*
X412755D01*
X413755Y-28751D01*
Y-30750D01*
X412755Y-31750D01*
X409756D01*
X421752Y-25752D02*
Y-31750D01*
X425751D01*
X428750Y-27751D02*
X430749D01*
X431749Y-28751D01*
Y-31750D01*
X428750D01*
X427750Y-30750D01*
X428750Y-29751D01*
X431749D01*
X433748Y-27751D02*
Y-30750D01*
X434748Y-31750D01*
X437747D01*
Y-32750D01*
X436747Y-33749D01*
X435747D01*
X437747Y-31750D02*
Y-27751D01*
X442745Y-31750D02*
X440746D01*
X439746Y-30750D01*
Y-28751D01*
X440746Y-27751D01*
X442745D01*
X443745Y-28751D01*
Y-29751D01*
X439746D01*
X445744Y-27751D02*
Y-31750D01*
Y-29751D01*
X446744Y-28751D01*
X447744Y-27751D01*
X448743D01*
X457740Y-28751D02*
X461739D01*
X469736Y-25752D02*
Y-31750D01*
X472736D01*
X473735Y-30750D01*
Y-29751D01*
X472736Y-28751D01*
X469736D01*
X472736D01*
X473735Y-27751D01*
Y-26752D01*
X472736Y-25752D01*
X469736D01*
X476734Y-31750D02*
X478733D01*
X479733Y-30750D01*
Y-28751D01*
X478733Y-27751D01*
X476734D01*
X475735Y-28751D01*
Y-30750D01*
X476734Y-31750D01*
X482732Y-26752D02*
Y-27751D01*
X481733D01*
X483732D01*
X482732D01*
Y-30750D01*
X483732Y-31750D01*
X487731Y-26752D02*
Y-27751D01*
X486731D01*
X488730D01*
X487731D01*
Y-30750D01*
X488730Y-31750D01*
X492729D02*
X494728D01*
X495728Y-30750D01*
Y-28751D01*
X494728Y-27751D01*
X492729D01*
X491729Y-28751D01*
Y-30750D01*
X492729Y-31750D01*
X497727D02*
Y-27751D01*
X498727D01*
X499727Y-28751D01*
Y-31750D01*
Y-28751D01*
X500726Y-27751D01*
X501726Y-28751D01*
Y-31750D01*
X509724Y-25752D02*
Y-31750D01*
X513722D01*
X516721Y-27751D02*
X518721D01*
X519720Y-28751D01*
Y-31750D01*
X516721D01*
X515722Y-30750D01*
X516721Y-29751D01*
X519720D01*
X521720Y-27751D02*
Y-30750D01*
X522719Y-31750D01*
X525718D01*
Y-32750D01*
X524719Y-33749D01*
X523719D01*
X525718Y-31750D02*
Y-27751D01*
X530717Y-31750D02*
X528717D01*
X527718Y-30750D01*
Y-28751D01*
X528717Y-27751D01*
X530717D01*
X531716Y-28751D01*
Y-29751D01*
X527718D01*
X533716Y-27751D02*
Y-31750D01*
Y-29751D01*
X534715Y-28751D01*
X535715Y-27751D01*
X536715D01*
X397760Y-40752D02*
X401758D01*
X399759D01*
Y-46750D01*
X404757D02*
X406757D01*
X407757Y-45750D01*
Y-43751D01*
X406757Y-42751D01*
X404757D01*
X403758Y-43751D01*
Y-45750D01*
X404757Y-46750D01*
X409756Y-48749D02*
Y-42751D01*
X412755D01*
X413755Y-43751D01*
Y-45750D01*
X412755Y-46750D01*
X409756D01*
X421752Y-40752D02*
Y-46750D01*
X425751D01*
X428750Y-42751D02*
X430749D01*
X431749Y-43751D01*
Y-46750D01*
X428750D01*
X427750Y-45750D01*
X428750Y-44751D01*
X431749D01*
X433748Y-42751D02*
Y-45750D01*
X434748Y-46750D01*
X437747D01*
Y-47750D01*
X436747Y-48749D01*
X435747D01*
X437747Y-46750D02*
Y-42751D01*
X442745Y-46750D02*
X440746D01*
X439746Y-45750D01*
Y-43751D01*
X440746Y-42751D01*
X442745D01*
X443745Y-43751D01*
Y-44751D01*
X439746D01*
X445744Y-42751D02*
Y-46750D01*
Y-44751D01*
X446744Y-43751D01*
X447744Y-42751D01*
X448743D01*
X457740Y-43751D02*
X461739D01*
X469736Y-40752D02*
Y-46750D01*
X472736D01*
X473735Y-45750D01*
Y-44751D01*
X472736Y-43751D01*
X469736D01*
X472736D01*
X473735Y-42751D01*
Y-41752D01*
X472736Y-40752D01*
X469736D01*
X476734Y-46750D02*
X478733D01*
X479733Y-45750D01*
Y-43751D01*
X478733Y-42751D01*
X476734D01*
X475735Y-43751D01*
Y-45750D01*
X476734Y-46750D01*
X482732Y-41752D02*
Y-42751D01*
X481733D01*
X483732D01*
X482732D01*
Y-45750D01*
X483732Y-46750D01*
X487731Y-41752D02*
Y-42751D01*
X486731D01*
X488730D01*
X487731D01*
Y-45750D01*
X488730Y-46750D01*
X492729D02*
X494728D01*
X495728Y-45750D01*
Y-43751D01*
X494728Y-42751D01*
X492729D01*
X491729Y-43751D01*
Y-45750D01*
X492729Y-46750D01*
X497727D02*
Y-42751D01*
X498727D01*
X499727Y-43751D01*
Y-46750D01*
Y-43751D01*
X500726Y-42751D01*
X501726Y-43751D01*
Y-46750D01*
X509724Y-40752D02*
Y-46750D01*
X513722D01*
X516721Y-42751D02*
X518721D01*
X519720Y-43751D01*
Y-46750D01*
X516721D01*
X515722Y-45750D01*
X516721Y-44751D01*
X519720D01*
X521720Y-42751D02*
Y-45750D01*
X522719Y-46750D01*
X525718D01*
Y-47750D01*
X524719Y-48749D01*
X523719D01*
X525718Y-46750D02*
Y-42751D01*
X530717Y-46750D02*
X528717D01*
X527718Y-45750D01*
Y-43751D01*
X528717Y-42751D01*
X530717D01*
X531716Y-43751D01*
Y-44751D01*
X527718D01*
X533716Y-42751D02*
Y-46750D01*
Y-44751D01*
X534715Y-43751D01*
X535715Y-42751D01*
X536715D01*
X324379Y-31750D02*
Y-25752D01*
X327379D01*
X328378Y-26752D01*
Y-28751D01*
X327379Y-29751D01*
X324379D01*
X326379D02*
X328378Y-31750D01*
X331377D02*
X333377D01*
X334376Y-30750D01*
Y-28751D01*
X333377Y-27751D01*
X331377D01*
X330378Y-28751D01*
Y-30750D01*
X331377Y-31750D01*
X336376Y-27751D02*
Y-30750D01*
X337375Y-31750D01*
X340374D01*
Y-27751D01*
X342374Y-31750D02*
Y-27751D01*
X345373D01*
X346372Y-28751D01*
Y-31750D01*
X352371Y-25752D02*
Y-31750D01*
X349372D01*
X348372Y-30750D01*
Y-28751D01*
X349372Y-27751D01*
X352371D01*
X324379Y-46750D02*
Y-40752D01*
X327379D01*
X328378Y-41752D01*
Y-43751D01*
X327379Y-44751D01*
X324379D01*
X326379D02*
X328378Y-46750D01*
X331377D02*
X333377D01*
X334376Y-45750D01*
Y-43751D01*
X333377Y-42751D01*
X331377D01*
X330378Y-43751D01*
Y-45750D01*
X331377Y-46750D01*
X336376Y-42751D02*
Y-45750D01*
X337375Y-46750D01*
X340374D01*
Y-42751D01*
X342374Y-46750D02*
Y-42751D01*
X345373D01*
X346372Y-43751D01*
Y-46750D01*
X352371Y-40752D02*
Y-46750D01*
X349372D01*
X348372Y-45750D01*
Y-43751D01*
X349372Y-42751D01*
X352371D01*
X273792Y-31750D02*
Y-25752D01*
X276791D01*
X277791Y-26752D01*
Y-28751D01*
X276791Y-29751D01*
X273792D01*
X279790Y-25752D02*
X283789D01*
X281789D01*
Y-31750D01*
X285788Y-25752D02*
Y-31750D01*
Y-28751D01*
X289787D01*
Y-25752D01*
Y-31750D01*
X273792Y-46750D02*
Y-40752D01*
X276791D01*
X277791Y-41752D01*
Y-43751D01*
X276791Y-44751D01*
X273792D01*
X279790Y-40752D02*
X283789D01*
X281789D01*
Y-46750D01*
X285788Y-40752D02*
Y-46750D01*
Y-43751D01*
X289787D01*
Y-40752D01*
Y-46750D01*
X163824Y-31750D02*
X165823D01*
X164824D01*
Y-25752D01*
X163824Y-26752D01*
X168822Y-30750D02*
X169822Y-31750D01*
X171821D01*
X172821Y-30750D01*
Y-26752D01*
X171821Y-25752D01*
X169822D01*
X168822Y-26752D01*
Y-27751D01*
X169822Y-28751D01*
X172821D01*
X174820Y-31750D02*
Y-30750D01*
X175820D01*
Y-31750D01*
X174820D01*
X183818Y-25752D02*
X181818Y-26752D01*
X179819Y-28751D01*
Y-30750D01*
X180818Y-31750D01*
X182818D01*
X183818Y-30750D01*
Y-29751D01*
X182818Y-28751D01*
X179819D01*
X185817Y-30750D02*
X186817Y-31750D01*
X188816D01*
X189816Y-30750D01*
Y-26752D01*
X188816Y-25752D01*
X186817D01*
X185817Y-26752D01*
Y-27751D01*
X186817Y-28751D01*
X189816D01*
X191815Y-31750D02*
Y-27751D01*
X192815D01*
X193814Y-28751D01*
Y-31750D01*
Y-28751D01*
X194814Y-27751D01*
X195814Y-28751D01*
Y-31750D01*
X197813D02*
X199812D01*
X198813D01*
Y-27751D01*
X197813D01*
X202811Y-31750D02*
X204811D01*
X203811D01*
Y-25752D01*
X202811D01*
X215807Y-31750D02*
X213808Y-29751D01*
Y-27751D01*
X215807Y-25752D01*
X218806Y-26752D02*
X219806Y-25752D01*
X221805D01*
X222805Y-26752D01*
Y-30750D01*
X221805Y-31750D01*
X219806D01*
X218806Y-30750D01*
Y-26752D01*
X224804Y-31750D02*
Y-30750D01*
X225804D01*
Y-31750D01*
X224804D01*
X233801Y-25752D02*
X229803D01*
Y-28751D01*
X231802Y-27751D01*
X232802D01*
X233801Y-28751D01*
Y-30750D01*
X232802Y-31750D01*
X230802D01*
X229803Y-30750D01*
X235801Y-26752D02*
X236800Y-25752D01*
X238800D01*
X239799Y-26752D01*
Y-30750D01*
X238800Y-31750D01*
X236800D01*
X235801Y-30750D01*
Y-26752D01*
X241799D02*
X242798Y-25752D01*
X244798D01*
X245797Y-26752D01*
Y-30750D01*
X244798Y-31750D01*
X242798D01*
X241799Y-30750D01*
Y-26752D01*
X247797Y-31750D02*
Y-27751D01*
X248797D01*
X249796Y-28751D01*
Y-31750D01*
Y-28751D01*
X250796Y-27751D01*
X251796Y-28751D01*
Y-31750D01*
X253795D02*
Y-27751D01*
X254795D01*
X255794Y-28751D01*
Y-31750D01*
Y-28751D01*
X256794Y-27751D01*
X257794Y-28751D01*
Y-31750D01*
X259793D02*
X261792Y-29751D01*
Y-27751D01*
X259793Y-25752D01*
X163824Y-41752D02*
X164824Y-40752D01*
X166823D01*
X167823Y-41752D01*
Y-42751D01*
X166823Y-43751D01*
X165823D01*
X166823D01*
X167823Y-44751D01*
Y-45750D01*
X166823Y-46750D01*
X164824D01*
X163824Y-45750D01*
X173821Y-40752D02*
X169822D01*
Y-43751D01*
X171821Y-42751D01*
X172821D01*
X173821Y-43751D01*
Y-45750D01*
X172821Y-46750D01*
X170822D01*
X169822Y-45750D01*
X175820Y-46750D02*
Y-45750D01*
X176820D01*
Y-46750D01*
X175820D01*
X183818D02*
Y-40752D01*
X180818Y-43751D01*
X184817D01*
X186817Y-41752D02*
X187816Y-40752D01*
X189816D01*
X190815Y-41752D01*
Y-42751D01*
X189816Y-43751D01*
X188816D01*
X189816D01*
X190815Y-44751D01*
Y-45750D01*
X189816Y-46750D01*
X187816D01*
X186817Y-45750D01*
X192815Y-46750D02*
Y-42751D01*
X193814D01*
X194814Y-43751D01*
Y-46750D01*
Y-43751D01*
X195814Y-42751D01*
X196813Y-43751D01*
Y-46750D01*
X198813D02*
X200812D01*
X199812D01*
Y-42751D01*
X198813D01*
X203811Y-46750D02*
X205810D01*
X204811D01*
Y-40752D01*
X203811D01*
X216807Y-46750D02*
X214808Y-44751D01*
Y-42751D01*
X216807Y-40752D01*
X219806Y-41752D02*
X220806Y-40752D01*
X222805D01*
X223805Y-41752D01*
Y-45750D01*
X222805Y-46750D01*
X220806D01*
X219806Y-45750D01*
Y-41752D01*
X225804Y-46750D02*
Y-45750D01*
X226804D01*
Y-46750D01*
X225804D01*
X230802Y-45750D02*
X231802Y-46750D01*
X233801D01*
X234801Y-45750D01*
Y-41752D01*
X233801Y-40752D01*
X231802D01*
X230802Y-41752D01*
Y-42751D01*
X231802Y-43751D01*
X234801D01*
X236800Y-41752D02*
X237800Y-40752D01*
X239799D01*
X240799Y-41752D01*
Y-45750D01*
X239799Y-46750D01*
X237800D01*
X236800Y-45750D01*
Y-41752D01*
X242798D02*
X243798Y-40752D01*
X245797D01*
X246797Y-41752D01*
Y-45750D01*
X245797Y-46750D01*
X243798D01*
X242798Y-45750D01*
Y-41752D01*
X248797Y-46750D02*
Y-42751D01*
X249796D01*
X250796Y-43751D01*
Y-46750D01*
Y-43751D01*
X251796Y-42751D01*
X252795Y-43751D01*
Y-46750D01*
X254795D02*
Y-42751D01*
X255794D01*
X256794Y-43751D01*
Y-46750D01*
Y-43751D01*
X257794Y-42751D01*
X258793Y-43751D01*
Y-46750D01*
X260793D02*
X262792Y-44751D01*
Y-42751D01*
X260793Y-40752D01*
X110838Y-61750D02*
X112837D01*
X111837D01*
Y-55752D01*
X110838Y-56752D01*
X119835Y-55752D02*
X117835Y-56752D01*
X115836Y-58751D01*
Y-60750D01*
X116836Y-61750D01*
X118835D01*
X119835Y-60750D01*
Y-59751D01*
X118835Y-58751D01*
X115836D01*
X127832Y-55752D02*
X131831D01*
X129831D01*
Y-61750D01*
X134830D02*
X136829D01*
X137829Y-60750D01*
Y-58751D01*
X136829Y-57751D01*
X134830D01*
X133830Y-58751D01*
Y-60750D01*
X134830Y-61750D01*
X140828Y-56752D02*
Y-57751D01*
X139828D01*
X141827D01*
X140828D01*
Y-60750D01*
X141827Y-61750D01*
X145826Y-57751D02*
X147826D01*
X148825Y-58751D01*
Y-61750D01*
X145826D01*
X144827Y-60750D01*
X145826Y-59751D01*
X148825D01*
X150825Y-61750D02*
X152824D01*
X151824D01*
Y-55752D01*
X150825D01*
X110838Y-26752D02*
X111837Y-25752D01*
X113837D01*
X114836Y-26752D01*
Y-27751D01*
X113837Y-28751D01*
X114836Y-29751D01*
Y-30750D01*
X113837Y-31750D01*
X111837D01*
X110838Y-30750D01*
Y-29751D01*
X111837Y-28751D01*
X110838Y-27751D01*
Y-26752D01*
X111837Y-28751D02*
X113837D01*
X110838Y-41752D02*
X111837Y-40752D01*
X113837D01*
X114836Y-41752D01*
Y-42751D01*
X113837Y-43751D01*
X114836Y-44751D01*
Y-45750D01*
X113837Y-46750D01*
X111837D01*
X110838Y-45750D01*
Y-44751D01*
X111837Y-43751D01*
X110838Y-42751D01*
Y-41752D01*
X111837Y-43751D02*
X113837D01*
D29*
X-3000Y2500D02*
G03*
X-3000Y2500I-1000J0D01*
G01*
X19500Y7500D02*
G03*
X19500Y7500I-1000J0D01*
G01*
X3500Y-5500D02*
G03*
X3500Y-5500I-1000J0D01*
G01*
X-16000Y-17000D02*
G03*
X-16000Y-17000I-1000J0D01*
G01*
X-23000Y-8000D02*
G03*
X-23000Y-8000I-1000J0D01*
G01*
X18000Y17500D02*
G03*
X18000Y17500I-1000J0D01*
G01*
X18500Y-12500D02*
G03*
X18500Y-12500I-1000J0D01*
G01*
X-16500Y12500D02*
G03*
X-16500Y12500I-1000J0D01*
G01*
X24500Y24000D02*
X26500D01*
Y26000D01*
X24500D02*
X26500D01*
X24500Y24000D02*
Y26000D01*
Y14000D02*
X26500D01*
Y16000D01*
X24500D02*
X26500D01*
X24500Y14000D02*
Y16000D01*
Y4000D02*
X26500D01*
Y6000D01*
X24500D02*
X26500D01*
X24500Y4000D02*
Y6000D01*
Y-6000D02*
X26500D01*
Y-4000D01*
X24500D02*
X26500D01*
X24500Y-6000D02*
Y-4000D01*
Y-16000D02*
X26500D01*
Y-14000D01*
X24500D02*
X26500D01*
X24500Y-16000D02*
Y-14000D01*
Y-26000D02*
X26500D01*
Y-24000D01*
X24500D02*
X26500D01*
X24500Y-26000D02*
Y-24000D01*
X35500Y-6000D02*
X37500D01*
Y-4000D01*
X35500D02*
X37500D01*
X35500Y-6000D02*
Y-4000D01*
Y4000D02*
X37500D01*
Y6000D01*
X35500D02*
X37500D01*
X35500Y4000D02*
Y6000D01*
M02*
